<svg xmlns="http://www.w3.org/2000/svg" viewBox="0 0 40 50" width="400" height="500" xmlns:v="https://vecta.io/nano"><path d="M22.2 11.7c-1-.7-2.1-1-3.5-1-2 0-3.6.8-4.8 2.3V1.7H8.3v32.2c0 .9-.4 1.8-1.4 2-3 .5-5.3 3-5.3 6.2 0 3.4 2.8 6.2 6.2 6.2 1.5 0 3-.6 4-1.5l.1-.1c.2-.1.3-.3.4-.4.2-.2.5-.3.8-.3a1.69 1.69 0 0 1 1 .3c1.2 1.4 2.8 2.1 4.7 2.1h.2c1.3 0 2.5-.3 3.4-1 .9-.6 1.6-1.4 2-2.2.3-.8.5-2 .5-3.8V18c0-1.9-.2-3.3-.6-4.1-.5-.8-1.1-1.5-2.1-2.2m-3 26.8v2.1c0 .7-.2 1.3-.7 1.7-.6.6-1.3.8-2.2.7-.8-.1-1.7-.7-2.4-1.8V18c.7-1 1.5-1.6 2.4-1.7s1.7.1 2.2.7c.5.4.7 1 .7 1.7v19.8zM33.3 13v-2h-5.6v37.1h5.6V17.9c.8-1 1.6-1.6 2.5-1.7s1.7.1 2.4.7v-6.2c-2-.1-3.7.7-4.9 2.3" fill="#7cb342"/><circle fill="#faed00" cx="7.8" cy="42.1" r="3.2"/></svg>